<svg id="Capa_1" data-name="Capa 1" xmlns="http://www.w3.org/2000/svg" xmlns:xlink="http://www.w3.org/1999/xlink" viewBox="0 0 296.83 159.55"><defs><style>.cls-1{fill:none;}.cls-2{font-size:29.1px;font-family:Poppins-Bold, Poppins Bold;font-weight:700;}.cls-2,.cls-3{fill:#fff;}.cls-3{font-size:45.61px;font-family:Poppins-Thin, Poppins Thin;font-weight:200;}.cls-4{clip-path:url(#clip-path);}.cls-5{fill:url(#Degradado_sin_nombre);}</style><clipPath id="clip-path"><path class="cls-1" d="M79.55,14.27c40,.39,71.74,36.34,65.84,76.25S98.3,156.12,59.9,144.36A67.24,67.24,0,0,1,15.64,99.3C13.81,93.15,4.15,95.77,6,102c6.48,21.67,22.08,39.9,42.92,48.92a77.27,77.27,0,0,0,65.78-2.12c40.49-20.8,53.93-75,27.35-112.09a77.58,77.58,0,0,0-62.5-32.4h-.06c-6.38,0-6.36,9.94.06,10"/></clipPath><linearGradient id="Degradado_sin_nombre" x1="-446.11" y1="-204.66" x2="-445.11" y2="-204.66" gradientTransform="matrix(141.22, 0, 0, -141.22, 63010.65, -28820.72)" gradientUnits="userSpaceOnUse"><stop offset="0" stop-color="#fff"/><stop offset="1" stop-color="#662d91"/></linearGradient></defs><title>habilidad</title><text class="cls-2" transform="translate(179.02 62.08)">Ofimatica</text><text class="cls-3" transform="translate(39.59 93.28)">70%</text><g class="cls-4"><rect class="cls-5" x="4.15" y="4.27" width="164.48" height="155.73"/></g></svg>